<svg width="26" height="28" viewBox="0 0 26 28" fill="none" xmlns="http://www.w3.org/2000/svg">
<path d="M13.7318 16.1041C13.2766 16.3594 12.7245 16.3594 12.2693 16.1041L1.65527 10.1455V21.2995C1.65652 22.5742 2.6717 23.6073 3.92436 23.6086H22.0771C23.3298 23.6073 24.3449 22.5742 24.3462 21.2995V10.1455L13.7318 16.1041Z" fill="white"/>
<path d="M22.0771 4.36621H3.92436C2.6717 4.36748 1.65652 5.40055 1.65527 6.67529V8.59951C1.65522 8.73975 1.73013 8.86891 1.85079 8.93664L12.8181 15.0942C12.9318 15.158 13.0697 15.158 13.1834 15.0942L24.1507 8.93664C24.2713 8.86891 24.3462 8.73975 24.3462 8.59951V6.67529C24.3449 5.40055 23.3298 4.36748 22.0771 4.36621Z" fill="white"/>
</svg>
