<svg width="27" height="26" viewBox="0 0 27 26" fill="none" xmlns="http://www.w3.org/2000/svg">
<path d="M20.4607 1.57143H6.53209C4.22517 1.57143 2.35352 3.44308 2.35352 5.75V19.6786C2.35352 21.9855 4.22517 23.8571 6.53209 23.8571H14.2508V15.2243H11.3491V11.8583H14.2508V9.37723C14.2508 6.50446 16.0209 4.9375 18.589 4.9375C19.8078 4.9375 20.8669 5.02455 21.1716 5.06808V8.07143L19.4015 8.08594C17.9941 8.08594 17.733 8.73884 17.733 9.71094V11.8583H21.0555L20.6203 15.2243H17.733V23.8571H20.4607C22.7676 23.8571 24.6392 21.9855 24.6392 19.6786V5.75C24.6392 3.44308 22.7676 1.57143 20.4607 1.57143Z" fill="white"/>
</svg>
