<svg width="27" height="26" viewBox="0 0 27 26" fill="none" xmlns="http://www.w3.org/2000/svg">
<path d="M17.2107 12.7143C17.2107 14.76 15.5421 16.4286 13.4964 16.4286C11.4506 16.4286 9.78209 14.76 9.78209 12.7143C9.78209 10.6685 11.4506 9 13.4964 9C15.5421 9 17.2107 10.6685 17.2107 12.7143ZM19.2129 12.7143C19.2129 9.55134 16.6593 6.99777 13.4964 6.99777C10.3334 6.99777 7.77986 9.55134 7.77986 12.7143C7.77986 15.8772 10.3334 18.4308 13.4964 18.4308C16.6593 18.4308 19.2129 15.8772 19.2129 12.7143ZM20.7799 6.76562C20.7799 6.02567 20.185 5.4308 19.445 5.4308C18.7051 5.4308 18.1102 6.02567 18.1102 6.76562C18.1102 7.50558 18.7051 8.10045 19.445 8.10045C20.185 8.10045 20.7799 7.50558 20.7799 6.76562ZM13.4964 3.57366C15.1214 3.57366 18.6035 3.44308 20.0689 4.02344C20.5767 4.22656 20.954 4.47321 21.3457 4.86495C21.7374 5.2567 21.9841 5.63393 22.1872 6.14174C22.7676 7.60714 22.637 11.0893 22.637 12.7143C22.637 14.3393 22.7676 17.8214 22.1872 19.2868C21.9841 19.7946 21.7374 20.1719 21.3457 20.5636C20.954 20.9554 20.5767 21.202 20.0689 21.4051C18.6035 21.9855 15.1214 21.8549 13.4964 21.8549C11.8714 21.8549 8.38923 21.9855 6.92383 21.4051C6.41602 21.202 6.03878 20.9554 5.64704 20.5636C5.2553 20.1719 5.00865 19.7946 4.80552 19.2868C4.22517 17.8214 4.35575 14.3393 4.35575 12.7143C4.35575 11.0893 4.22517 7.60714 4.80552 6.14174C5.00865 5.63393 5.2553 5.2567 5.64704 4.86495C6.03878 4.47321 6.41602 4.22656 6.92383 4.02344C8.38923 3.44308 11.8714 3.57366 13.4964 3.57366ZM24.6392 12.7143C24.6392 11.1763 24.6537 9.6529 24.5667 8.11495C24.4796 6.33036 24.0734 4.74888 22.7676 3.44308C21.4618 2.13728 19.8803 1.73103 18.0957 1.64397C16.5578 1.55692 15.0343 1.57143 13.4964 1.57143C11.9584 1.57143 10.435 1.55692 8.89704 1.64397C7.11244 1.73103 5.53097 2.13728 4.22517 3.44308C2.91936 4.74888 2.51311 6.33036 2.42606 8.11495C2.33901 9.6529 2.35352 11.1763 2.35352 12.7143C2.35352 14.2522 2.33901 15.7757 2.42606 17.3136C2.51311 19.0982 2.91936 20.6797 4.22517 21.9855C5.53097 23.2913 7.11244 23.6975 8.89704 23.7846C10.435 23.8717 11.9584 23.8571 13.4964 23.8571C15.0343 23.8571 16.5578 23.8717 18.0957 23.7846C19.8803 23.6975 21.4618 23.2913 22.7676 21.9855C24.0734 20.6797 24.4796 19.0982 24.5667 17.3136C24.6537 15.7757 24.6392 14.2522 24.6392 12.7143Z" fill="white"/>
</svg>
