<svg width="26" height="28" viewBox="0 0 26 28" fill="none" xmlns="http://www.w3.org/2000/svg">
<path d="M23.5889 25.9168H2.41068C2.27302 25.9168 2.14671 25.841 2.07977 25.7186C2.01283 25.5962 2.01699 25.4465 2.08961 25.328L5.87142 19.1705C5.98223 18.99 6.21557 18.9349 6.39256 19.0481C6.56993 19.1608 6.62363 19.3983 6.51282 19.5784L3.09292 25.1471H22.9066L19.4863 19.5784C19.3759 19.3983 19.4296 19.1608 19.6066 19.0481C19.7836 18.9357 20.0169 18.9907 20.1277 19.1705L23.9096 25.328C23.9822 25.4465 23.9863 25.5962 23.9194 25.7186C23.8525 25.841 23.7265 25.9168 23.5889 25.9168Z" fill="white"/>
<path fill-rule="evenodd" clip-rule="evenodd" d="M5.05762 9.81592C5.05762 4.9761 9.09546 2.08398 12.9994 2.08398C16.9034 2.08398 20.9413 4.9761 20.9413 9.81592C20.9413 14.451 13.5868 22.3827 13.2736 22.7183C13.2021 22.7948 13.1031 22.8379 12.9994 22.8379C12.8958 22.8379 12.7967 22.7948 12.7253 22.7183C12.4121 22.3827 5.05762 14.4506 5.05762 9.81592ZM10.3522 10.1657C10.3522 11.6536 11.5374 12.8597 12.9994 12.8597C14.4615 12.8597 15.6467 11.6536 15.6467 10.1657C15.6467 8.67793 14.4615 7.47183 12.9994 7.47183C11.5374 7.47183 10.3522 8.67793 10.3522 10.1657Z" fill="white"/>
</svg>
