<svg width="26" height="28" viewBox="0 0 26 28" fill="none" xmlns="http://www.w3.org/2000/svg">
<path fill-rule="evenodd" clip-rule="evenodd" d="M19.0516 2.05664H6.94975C5.69657 2.05664 4.68066 3.09045 4.68066 4.36572V23.608C4.68066 24.8833 5.69657 25.9171 6.94975 25.9171H19.0516C20.3048 25.9171 21.3207 24.8833 21.3207 23.608V4.36572C21.3207 3.09045 20.3048 2.05664 19.0516 2.05664ZM13.0007 24.3777C12.3741 24.3777 11.8661 23.8608 11.8661 23.2232C11.8661 22.5855 12.3741 22.0686 13.0007 22.0686C13.6273 22.0686 14.1352 22.5855 14.1352 23.2232C14.1352 23.8608 13.6273 24.3777 13.0007 24.3777ZM20.1861 20.5292C20.395 20.5292 20.5643 20.3569 20.5643 20.1444V4.75056C20.5643 4.53802 20.395 4.36572 20.1861 4.36572H5.81521C5.60635 4.36572 5.43703 4.53802 5.43703 4.75056V20.1444C5.43703 20.3569 5.60635 20.5292 5.81521 20.5292H20.1861Z" fill="white"/>
</svg>
