<svg width="27" height="27" viewBox="0 0 27 27" fill="none" xmlns="http://www.w3.org/2000/svg">
<path d="M23.4658 11.9732C23.2482 11.9732 23.016 12.0167 22.7984 12.0893L20.4189 12.9018L18.8955 8.31696L21.1734 7.53348C21.9859 7.25781 22.6823 6.50335 22.6823 5.60379C22.6823 4.44308 21.7102 3.60156 20.5785 3.60156C20.3609 3.60156 20.1578 3.63058 19.9547 3.68861L17.6042 4.48661L16.8352 2.15067C16.5451 1.29464 15.7326 0.714284 14.8185 0.714284C13.6723 0.714284 12.7292 1.67187 12.7292 2.81808C12.7292 3.05022 12.7727 3.28236 12.8453 3.5L13.6288 5.82143L9.131 7.34486L8.34752 5.02344C8.05734 4.1529 7.25935 3.58705 6.34528 3.58705C5.18457 3.58705 4.256 4.54464 4.256 5.69085C4.256 5.92299 4.29953 6.15513 4.37207 6.37277L5.14104 8.67969L2.86314 9.44866C2.00711 9.73884 1.42676 10.5513 1.42676 11.4509C1.42676 12.6116 2.32631 13.4967 3.48703 13.4967C3.71917 13.4967 3.95131 13.4531 4.18345 13.3806L6.44685 12.5971L7.97028 17.1384L5.70689 17.9074C4.85087 18.1975 4.27051 19.01 4.27051 19.9096C4.27051 21.0848 5.15555 21.9554 6.33078 21.9554C6.57743 21.9554 6.82408 21.8973 7.05622 21.8248L9.27609 21.0558L10.0741 23.4208C10.3643 24.2913 11.1622 24.8571 12.0763 24.8571C13.237 24.8571 14.1656 23.885 14.1656 22.7533C14.1656 22.5212 14.1221 22.2891 14.0495 22.0714L13.2515 19.692L17.7493 18.154L18.5473 20.548C18.8375 21.4185 19.65 21.9844 20.564 21.9844C21.7102 21.9844 22.6388 21.0268 22.6388 19.8806C22.6388 19.6484 22.6098 19.4163 22.5372 19.1987L21.7247 16.7757L24.2203 15.9196C25.0908 15.615 25.5696 14.9621 25.5696 14.0335C25.5696 12.8437 24.6556 11.9732 23.4658 11.9732ZM11.9457 15.7746L10.4223 11.2333L14.9201 9.6808L16.4435 14.2511L11.9457 15.7746Z" fill="white"/>
</svg>
