<svg width="27" height="26" viewBox="0 0 27 26" fill="none" xmlns="http://www.w3.org/2000/svg">
<path d="M24.9312 5.63393C24.0897 5.99665 23.1756 6.25781 22.2326 6.35938C23.2047 5.77902 23.9446 4.86495 24.2928 3.77679C23.3933 4.31361 22.3777 4.70536 21.3185 4.90848C20.4625 3.99442 19.2437 3.42857 17.8944 3.42857C15.2973 3.42857 13.208 5.53236 13.208 8.11495C13.208 8.47768 13.2515 8.8404 13.3241 9.18862C9.43569 8.98549 5.96805 7.12835 3.66113 4.2846C3.25488 4.98103 3.02274 5.77902 3.02274 6.64955C3.02274 8.27455 3.84975 9.71094 5.11203 10.5525C4.34305 10.5234 3.61761 10.3058 2.99372 9.95759C2.99372 9.9721 2.99372 10.0011 2.99372 10.0156C2.99372 12.2935 4.60421 14.1797 6.75153 14.615C6.35979 14.7165 5.93903 14.7746 5.51828 14.7746C5.21359 14.7746 4.92341 14.7455 4.63323 14.702C5.2281 16.5592 6.95466 17.9085 9.01493 17.952C7.40444 19.2143 5.3877 19.9542 3.19685 19.9542C2.80511 19.9542 2.44238 19.9397 2.06515 19.8962C4.13993 21.231 6.60645 22 9.26158 22C17.8799 22 22.5953 14.8616 22.5953 8.66629C22.5953 8.46317 22.5953 8.26004 22.5808 8.05692C23.4948 7.38951 24.2928 6.5625 24.9312 5.63393Z" fill="white"/>
</svg>
